Source: Confessions.of.a.Dangerous.Mind.2002.720p.BluRay.X264-AMIABLE

Subs: Danish, Dutch, English, Finnish, Greek, Persian, Polish, Romanian, Spanish and Swedish.

Sample and Screens included.

General
Complete name                    : Confessions of a Dangerous Mind-720p MP4 AAC x264 BRRip 2002-CC.mp4
Format                           : MPEG-4
Format profile                   : Base Media
Codec ID                         : isom
File size                        : 1.98 GiB
Duration                         : 1h 53mn
Overall bit rate                 : 2 495 Kbps
Encoded date                     : UTC 2012-05-13 15:05:14

Video
ID                               : 1
Format                           : AVC
Format/Info                      : Advanced Video Codec
Format profile                   : High@L3.1
Format settings, CABAC           : Yes
Format settings, ReFrames        : 5 frames
Codec ID                         : avc1
Codec ID/Info                    : Advanced Video Coding
Duration                         : 1h 53mn
Bit rate mode                    : Variable
Bit rate                         : 2 113 Kbps
Nominal bit rate                 : 2 160 Kbps
Maximum bit rate                 : 12.4 Mbps
Width                            : 1 280 pixels
Height                           : 528 pixels
Display aspect ratio             : 2.35:1
Frame rate mode                  : Variable
Frame rate                       : 23.976 fps
Minimum frame rate               : 19.048 fps
Maximum frame rate               : 25.000 fps
Resolution                       : 24 bits
Colorimetry                      : 4:2:0
Scan type                        : Progressive
Bits/(Pixel*Frame)               : 0.130
Stream size                      : 1.68 GiB (85%)
Writing library                  : x264 core 112

Audio
ID                               : 2
Format                           : AAC
Format/Info                      : Advanced Audio Codec
Format version                   : Version 4
Format profile                   : LC
Format settings, SBR             : No
Codec ID                         : 40
Duration                         : 1h 53mn
Bit rate mode                    : Variable
Bit rate                         : 384 Kbps
Maximum bit rate                 : 816 Kbps
Channel(s)                       : 6 channels
Channel positions                : Front: L C R, Rear: L R, LFE
Sampling rate                    : 48.0 KHz
Resolution                       : 16 bits
Stream size                      : 306 MiB (15%)
Language                         : English

Enjoy...

Requested by DreamExtractor.